<svg xmlns="http://www.w3.org/2000/svg" width="130" height="24" fill="none"><path fill="#8C75E7" fill-rule="evenodd" d="M20.62 1.11a2.1 2.1 0 0 1 1.37 1.72l1.85 16.05h4.5c2.66 0 4.49-.93 5.66-2.16A6.85 6.85 0 0 0 35.82 12c0-1.76-.63-3.47-1.82-4.72-1.17-1.23-3-2.15-5.67-2.15h-2.88L24.9 1h3.43c3.7 0 6.64 1.31 8.66 3.44A10.97 10.97 0 0 1 39.94 12c0 2.71-.96 5.47-2.95 7.56C34.97 21.7 32.03 23 28.33 23H22a2.06 2.06 0 0 1-2.05-1.83L18.38 7.54 7.04 18.88h9.45l.55 4.12H2.06A2.06 2.06 0 0 1 .6 19.48L18.48 1.6a2.06 2.06 0 0 1 2.14-.49Z" clip-rule="evenodd"/><path fill="#1A1A1A" d="M87.04 8.86c-1.63 0-3.03.66-3.9 1.77-.76-1.2-2.08-1.77-3.66-1.77-1.21 0-2.3.36-3.15 1.02v-.86H73.2v10.82h3.14v-6.58c.5-1.02 1.32-1.68 2.38-1.68 1.26 0 2.04.8 2.04 2.56v5.7h3.15V13.3c.49-1.04 1.33-1.72 2.39-1.72 1.26 0 2.04.8 2.04 2.56v5.7h3.15v-6.2c-.02-3.3-1.87-4.78-4.44-4.78ZM56.32 19.82h3.41L53.45 5.59h-3.22l-6.28 14.23h3.42l1.31-3.18H55l1.32 3.18Zm-6.63-5.57L51.86 9l2.17 5.25H49.7Zm43.89-5.23h3.14v10.82h-3.14V9.02Zm3.4-3.2a1.83 1.83 0 0 1-3.65 0c-.01-1 .81-1.82 1.82-1.82 1 0 1.82.82 1.82 1.83Zm9.2 13.48a4.5 4.5 0 0 1-2.56.68c-2.56 0-4.04-1.3-4.04-3.87v-4.68h-1.66v-2.4h1.66V6.6l3.15-.84v3.25h2.68v2.41h-2.68v4.64c0 .93.5 1.43 1.35 1.43.45 0 .93-.15 1.26-.4l.84 2.2Zm5.48-10.44c-1.74 0-3.47.46-4.66 1.31l1.13 2.2a5.2 5.2 0 0 1 3.13-1c1.68 0 2.48.78 2.48 2.13-.78-.13-1.83-.19-2.48-.19-3.3 0-4.64 1.52-4.64 3.42 0 1.86 1.5 3.27 4.03 3.27 1.45 0 2.43-.33 3.09-1.08v.92h3.14v-6.18c-.02-3.29-1.93-4.8-5.22-4.8Zm-.24 9.02c-1.1 0-1.77-.53-1.77-1.31 0-.73.46-1.26 1.93-1.26 0 0 1.43-.08 2.16.18v.73a2.5 2.5 0 0 1-2.32 1.66ZM67.88 5.57v4.24a5.22 5.22 0 0 0-2.94-.95 5.57 5.57 0 1 0 0 11.12c1.11 0 2.1-.38 2.94-1.02v.86h3.14V4.73l-3.14.84Zm-5.39 8.86c0-2.45 2.7-3.91 5.37-1.88v3.82c-2.8 2.08-5.37.38-5.37-1.94Zm64.35-8.86v4.24a5.22 5.22 0 0 0-2.95-.95 5.57 5.57 0 1 0 0 11.14c1.12 0 2.1-.38 2.95-1.02v.86h3.14V4.73l-3.14.84Zm-5.4 8.86c0-2.45 2.71-3.91 5.38-1.88v3.82c-2.8 2.08-5.37.38-5.37-1.94Z"/></svg>