<!--
  Font Awesome Free 6.7.2
  by @fontawesome - https://fontawesome.com
  License - https://fontawesome.com/license/free
  Copyright 2025 Fonticons, Inc.
-->
<svg xmlns="http://www.w3.org/2000/svg">
  <defs>
    <symbol id="signal" viewBox="0 0 512 512"><path d="M256 0c13.3 0 26.3 1 39.1 3l-3.7 23.7C279.9 24.9 268 24 256 24s-23.9.9-35.4 2.7L216.9 3c12.8-2 25.8-3 39.1-3zm60.8 7.3-5.7 23.3c23.4 5.7 45.4 14.9 65.4 27.1L389 37.2c-22.1-13.4-46.4-23.6-72.2-29.9zm90.5 42.2-14.2 19.3c19.1 14 36 30.9 50.1 50.1l19.4-14.2C447 83.6 428.4 65 407.3 49.5zm67.5 73.6-20.5 12.5c12.2 20 21.4 42 27.1 65.4l23.3-5.7c-6.3-25.8-16.5-50.1-29.9-72.2zm34.2 93.8-23.7 3.7c1.8 11.5 2.7 23.4 2.7 35.4s-.9 23.9-2.7 35.4l23.7 3.7c1.9-12.7 3-25.8 3-39.1s-1-26.3-3-39.1zm-54.7 159.6c12.2-20 21.4-42 27.1-65.4l23.3 5.7c-6.3 25.8-16.5 50.1-29.9 72.2l-20.5-12.5zm-11.1 16.6 19.4 14.2c-15.5 21.1-34.1 39.8-55.2 55.2l-14.2-19.4c19.1-14 36-30.9 50.1-50.1zm-66.7 61.2 12.5 20.5c-22.1 13.4-46.4 23.6-72.2 29.9l-5.7-23.3c23.4-5.7 45.4-14.9 65.4-27.1zm-85.1 31 3.7 23.7c-12.7 1.9-25.8 3-39.1 3s-26.3-1-39.1-3l3.7-23.7c11.5 1.8 23.4 2.7 35.4 2.7s23.9-.9 35.4-2.7zm-90.5-3.9-5.7 23.3c-19.4-4.7-37.9-11.6-55.3-20.5l-24.3 5.7-5.5-23.4 32.8-7.7 7.8 4c15.7 8 32.5 14.3 50.1 18.6zM90 471.3l5.5 23.4-41.6 9.7C26 510.8 1.2 486 7.6 458.2l9.7-41.6 23.4 5.4-9.7 41.7c-2.4 10.4 6.9 19.7 17.3 17.3l41.7-9.7zm-44.5-69.5-23.4-5.5 5.7-24.3c-8.9-17.3-15.8-35.9-20.5-55.3l23.3-5.7c4.3 17.6 10.6 34.4 18.6 50.1l4 7.8-7.7 32.8zM26.7 291.4 3 295.1c-2-12.8-3-25.8-3-39.1s1-26.3 3-39.1l23.7 3.7C24.9 232.1 24 244 24 256s.9 23.9 2.7 35.4zm3.9-90.5-23.3-5.7c6.3-25.8 16.5-50.1 29.9-72.2l20.5 12.5c-12.2 20-21.4 42-27.1 65.4zm38.3-82.1-19.4-14.1C65 83.6 83.6 65 104.7 49.5l14.2 19.4c-19.1 14-36 30.9-50.1 50.1zm66.7-61.2-12.5-20.4c22.1-13.4 46.4-23.6 72.2-29.9l5.7 23.3c-23.4 5.7-45.4 14.9-65.4 27.1zM464 256c0 114.9-93.1 208-208 208-36.4 0-70.7-9.4-100.5-25.8-2.9-1.6-6.2-2.1-9.4-1.4l-92.5 21.6 21.6-92.5c.7-3.2.2-6.5-1.4-9.4C57.4 326.7 48 292.4 48 256c0-114.9 93.1-208 208-208s208 93.1 208 208z"/></symbol>
    <symbol id="javascript" viewBox="0 0 448 512"><path d="M448 96c0-35.3-28.7-64-64-64H64C28.7 32 0 60.7 0 96v320c0 35.3 28.7 64 64 64h320c35.3 0 64-28.7 64-64V96zM180.9 444.9c-33.7 0-53.2-17.4-63.2-38.5l34.3-20.7c6.6 11.7 12.6 21.6 27.1 21.6 13.8 0 22.6-5.4 22.6-26.5V237.7h42.1v143.7c0 43.6-25.6 63.5-62.9 63.5zm85.8-43 34.3-19.8c9 14.7 20.8 25.6 41.5 25.6 17.4 0 28.6-8.7 28.6-20.8 0-14.4-11.4-19.5-30.7-28l-10.5-4.5c-30.4-12.9-50.5-29.2-50.5-63.5 0-31.6 24.1-55.6 61.6-55.6 26.8 0 46 9.3 59.8 33.7L368 290c-7.2-12.9-15-18-27.1-18-12.3 0-20.1 7.8-20.1 18 0 12.6 7.8 17.7 25.9 25.6l10.5 4.5c35.8 15.3 55.9 31 55.9 66.2 0 37.8-29.8 58.6-69.7 58.6-39.1 0-64.4-18.6-76.7-43z"/></symbol>
    <symbol id="php" viewBox="0 0 640 512"><path d="M320 104.5c171.4 0 303.2 72.2 303.2 151.5S491.3 407.5 320 407.5c-171.4 0-303.2-72.2-303.2-151.5S148.7 104.5 320 104.5m0-16.8C143.3 87.7 0 163 0 256s143.3 168.3 320 168.3S640 349 640 256 496.7 87.7 320 87.7zM218.2 242.5c-7.9 40.5-35.8 36.3-70.1 36.3l13.7-70.6c38 0 63.8-4.1 56.4 34.3zM97.4 350.3h36.7l8.7-44.8c41.1 0 66.6 3 90.2-19.1 26.1-24 32.9-66.7 14.3-88.1-9.7-11.2-25.3-16.7-46.5-16.7h-70.7L97.4 350.3zm185.7-213.6h36.5l-8.7 44.8c31.5 0 60.7-2.3 74.8 10.7 14.8 13.6 7.7 31-8.3 113.1h-37c15.4-79.4 18.3-86 12.7-92-5.4-5.8-17.7-4.6-47.4-4.6l-18.8 96.6h-36.5l32.7-168.6zM505 242.5c-8 41.1-36.7 36.3-70.1 36.3l13.7-70.6c38.2 0 63.8-4.1 56.4 34.3zM384.2 350.3H421l8.7-44.8c43.2 0 67.1 2.5 90.2-19.1 26.1-24 32.9-66.7 14.3-88.1-9.7-11.2-25.3-16.7-46.5-16.7H417l-32.8 168.7z"/></symbol>
    <symbol id="python" viewBox="0 0 448 512"><path d="M439.8 200.5c-7.7-30.9-22.3-54.2-53.4-54.2h-40.1v47.4c0 36.8-31.2 67.8-66.8 67.8H172.7c-29.2 0-53.4 25-53.4 54.3v101.8c0 29 25.2 46 53.4 54.3 33.8 9.9 66.3 11.7 106.8 0 26.9-7.8 53.4-23.5 53.4-54.3v-40.7H226.2v-13.6h160.2c31.1 0 42.6-21.7 53.4-54.2 11.2-33.5 10.7-65.7 0-108.6zM286.2 404c11.1 0 20.1 9.1 20.1 20.3 0 11.3-9 20.4-20.1 20.4-11 0-20.1-9.2-20.1-20.4.1-11.3 9.1-20.3 20.1-20.3zM167.8 248.1h106.8c29.7 0 53.4-24.5 53.4-54.3V91.9c0-29-24.4-50.7-53.4-55.6-35.8-5.9-74.7-5.6-106.8.1-45.2 8-53.4 24.7-53.4 55.6v40.7h106.9v13.6h-147c-31.1 0-58.3 18.7-66.8 54.2-9.8 40.7-10.2 66.1 0 108.6 7.6 31.6 25.7 54.2 56.8 54.2H101v-48.8c0-35.3 30.5-66.4 66.8-66.4zm-6.7-142.6c-11.1 0-20.1-9.1-20.1-20.3.1-11.3 9-20.4 20.1-20.4 11 0 20.1 9.2 20.1 20.4s-9 20.3-20.1 20.3z"/></symbol>
    <symbol id="laravel" viewBox="0 0 512 512"><path d="M107.2 0c2.5 0 4.7.8 6.7 2l94.3 54.1c2.7 1.5 4.5 3.5 5.4 5.9.9 2.2.9 4.3.9 5.6V261l69.2-39.7V121c0-2.6.6-5 2.2-7.2 1.5-2.1 3.5-3.6 5.7-4.8l94-54c1.6-.9 3.4-1.6 5.5-1.6s4 .7 5.6 1.6l95.8 55.1c2.3 1.3 3.9 3 4.9 5.3.9 2.1.9 4.2.9 5.8v107.2c0 2-.2 4.3-1.4 6.4-1.2 2.2-3 3.7-5.1 4.9l-.1.1-88 50.5v100c0 2.3-.3 4.8-1.6 7s-3.3 3.7-5.3 4.9h-.1L208.7 510c-2.2 1.2-4.5 2-7.1 2s-4.9-.9-7.1-2l-.1-.1L7.1 402l-.5-.3c-1.1-.7-2.6-1.7-3.8-2.9-1.9-1.9-2.8-4.2-2.8-7.2V65.9c0-4.8 3-7.9 5.5-9.3l95-54.6c2-1.2 4.3-2 6.8-2zM38.1 67.1l69 39.9 69.2-39.9-69.2-39.7-69 39.7zm353 93.2 69-39.7-69-39.7-69.1 39.7 69.1 39.7zM189.2 89 120 128.8v186.4l69.2-39.9V88.9zm-94.7 39.9L25.2 89.1v294.2l164 94.2v-79.4l-87.3-49.3-.2-.1c-1.3-.8-3.2-1.9-4.6-3.7-1.7-2.1-2.5-4.7-2.5-7.7V128.8zm214.7 92.4 69.3 39.6v-78.5l-69.3-39.9v78.8zm94.5 39.6 69.3-39.7v-78.8l-69.3 39.9v78.5zM201.6 376.1l163.8-93.2-69-39.9L133 337.1l68.6 38.9zm12.9 101.5 164-94.2v-78.8l-164 93.6v79.4z"/></symbol>
    <symbol id="vue" viewBox="0 0 448 512"><path d="M356.9 64.3H280l-56 88.6-48-88.6H0L224 448 448 64.3h-91.1zm-301.2 32h53.8L224 294.5 338.4 96.3h53.8L224 384.5 55.7 96.3z"/></symbol>
    <symbol id="html" viewBox="0 0 384 512"><path d="m0 32 34.9 395.8L191.5 480l157.6-52.2L384 32H0zm308.2 127.9H124.4l4.1 49.4h175.6l-13.6 148.4-97.9 27v.3h-1.1l-98.7-27.3-6-75.8h47.7L138 320l53.5 14.5 53.7-14.5 6-62.2H84.3L71.5 112.2h241.1l-4.4 47.7z"/></symbol>
    <symbol id="css" viewBox="0 0 512 512"><path d="m480 32-64 368-223.3 80L0 400l19.6-94.8h82l-8 40.6L210 390.2l134.1-44.4 18.8-97.1H29.5l16-82h333.7l10.5-52.7H56.3l16.3-82H480z"/></symbol>
    <symbol id="nodejs" viewBox="0 0 448 512"><path d="M224 508c-6.7 0-13.5-1.8-19.4-5.2l-61.7-36.5c-9.2-5.2-4.7-7-1.7-8 12.3-4.3 14.8-5.2 27.9-12.7 1.4-.8 3.2-.5 4.6.4l47.4 28.1c1.7 1 4.1 1 5.7 0l184.7-106.6c1.7-1 2.8-3 2.8-5V149.3c0-2.1-1.1-4-2.9-5.1L226.8 37.7c-1.7-1-4-1-5.7 0L36.6 144.3c-1.8 1-2.9 3-2.9 5.1v213.1c0 2 1.1 4 2.9 4.9l50.6 29.2c27.5 13.7 44.3-2.4 44.3-18.7V167.5c0-3 2.4-5.3 5.4-5.3h23.4c2.9 0 5.4 2.3 5.4 5.3V378c0 36.6-20 57.6-54.7 57.6-10.7 0-19.1 0-42.5-11.6l-48.4-27.9C8.1 389.2.7 376.3.7 362.4V149.3c0-13.8 7.4-26.8 19.4-33.7L204.6 9c11.7-6.6 27.2-6.6 38.8 0l184.7 106.7c12 6.9 19.4 19.8 19.4 33.7v213.1c0 13.8-7.4 26.7-19.4 33.7L243.4 502.8c-5.9 3.4-12.6 5.2-19.4 5.2zm149.1-210.1c0-39.9-27-50.5-83.7-58-57.4-7.6-63.2-11.5-63.2-24.9 0-11.1 4.9-25.9 47.4-25.9 37.9 0 51.9 8.2 57.7 33.8.5 2.4 2.7 4.2 5.2 4.2h24c1.5 0 2.9-.6 3.9-1.7s1.5-2.6 1.4-4.1c-3.7-44.1-33-64.6-92.2-64.6-52.7 0-84.1 22.2-84.1 59.5 0 40.4 31.3 51.6 81.8 56.6 60.5 5.9 65.2 14.8 65.2 26.7 0 20.6-16.6 29.4-55.5 29.4-48.9 0-59.6-12.3-63.2-36.6-.4-2.6-2.6-4.5-5.3-4.5h-23.9c-3 0-5.3 2.4-5.3 5.3 0 31.1 16.9 68.2 97.8 68.2 58.4-.1 92-23.2 92-63.4z"/></symbol>
    <symbol id="envelope" viewBox="0 0 640 512"><path d="M48 64C21.5 64 0 85.5 0 112c0 15.1 7.1 29.3 19.2 38.4l217.6 163.2c11.4 8.5 27 8.5 38.4 0l217.6-163.2c12.1-9.1 19.2-23.3 19.2-38.4 0-26.5-21.5-48-48-48H48zM0 176v208c0 35.3 28.7 64 64 64h384c35.3 0 64-28.7 64-64V176L294.4 339.2a63.9 63.9 0 0 1-76.8 0L0 176z"/></symbol>
    <symbol id="file-pdf" viewBox="0 0 512 512"><path d="M0 64C0 28.7 28.7 0 64 0h160v128c0 17.7 14.3 32 32 32h128v144H176c-35.3 0-64 28.7-64 64v144H64c-35.3 0-64-28.7-64-64V64zm384 64H256V0l128 128zM176 352h32c30.9 0 56 25.1 56 56s-25.1 56-56 56h-16v32c0 8.8-7.2 16-16 16s-16-7.2-16-16V368c0-8.8 7.2-16 16-16zm32 80c13.3 0 24-10.7 24-24s-10.7-24-24-24h-16v48h16zm96-80h32c26.5 0 48 21.5 48 48v64c0 26.5-21.5 48-48 48h-32c-8.8 0-16-7.2-16-16V368c0-8.8 7.2-16 16-16zm32 128c8.8 0 16-7.2 16-16v-64c0-8.8-7.2-16-16-16h-16v96h16zm80-112c0-8.8 7.2-16 16-16h48c8.8 0 16 7.2 16 16s-7.2 16-16 16h-32v32h32c8.8 0 16 7.2 16 16s-7.2 16-16 16h-32v48c0 8.8-7.2 16-16 16s-16-7.2-16-16V368z"/></symbol>
  </defs>
</svg>
