<svg xmlns="http://www.w3.org/2000/svg" width="307" height="28" fill="none"><g clip-path="url(#a)"><path fill="#ED202E" d="M42.483 28v-4.823H26.029V.656h6.089v16.762h7.53V.656h6.088v16.762h2.882v10.629h-6.135V28Zm8.459-4.823V.656h10.086c4.973 0 8.32 3.37 8.32 7.913 0 4.494-3.347 7.866-8.32 7.866h-3.997v6.742h-6.089Zm6.089-12.22h3.672c1.44 0 2.556-1.124 2.556-2.435s-1.115-2.435-2.556-2.435H57.03v4.87Zm14.641 12.22V.656h10.086c5.113 0 7.809 2.715 7.809 5.946 0 2.294-1.487 4.167-3.207 4.682 1.72.562 4.369 2.435 4.369 5.619 0 3.371-2.882 6.274-8.134 6.274H71.672Zm6.089-13.86h3.532c1.302 0 2.092-.795 2.092-1.919s-.79-1.92-2.092-1.92h-3.532v3.84Zm0 9.038h4.323c1.44 0 2.416-.984 2.416-2.248 0-1.264-.975-2.247-2.416-2.247H77.76v4.495ZM11.852 0C5.3 0 0 5.338 0 11.94c0 6.555 5.299 11.893 11.852 11.893 6.508 0 11.853-5.338 11.853-11.893C23.658 5.338 18.36 0 11.852 0Zm0 18.12c-3.393 0-6.135-2.809-6.135-6.18 0-3.418 2.742-6.228 6.135-6.228s6.136 2.81 6.136 6.228c0 3.371-2.743 6.18-6.136 6.18Z"/><path fill="#000" d="M102.302 5.01c0-2.341 1.86-4.214 4.184-4.214s4.183 1.873 4.183 4.214-1.859 4.214-4.183 4.214-4.184-1.873-4.184-4.214Zm7.53 0c0-1.92-1.441-3.371-3.3-3.371-1.859 0-3.3 1.451-3.3 3.371 0 1.873 1.487 3.371 3.3 3.371 1.813.047 3.3-1.451 3.3-3.371Zm3.811 4.12V4.26h-1.998v-.748h4.834v.749h-1.999v4.823h-.837v.046Zm3.951 2.435V3.512h.79v.983c.279-.468.976-1.077 2.046-1.077 1.394 0 2.602 1.217 2.602 2.903s-1.208 2.903-2.602 2.903c-1.023 0-1.767-.609-2.046-1.077v3.418h-.79Zm4.648-5.244c0-1.264-.883-2.154-1.905-2.154-1.069 0-1.953.89-1.953 2.154 0 1.264.884 2.154 1.953 2.154 1.022 0 1.905-.89 1.905-2.154Zm6.414-.749v3.512h-.743v-.89c-.233.468-.976 1.03-1.952 1.03-1.116 0-1.86-.75-1.86-1.592 0-.89.651-1.545 1.767-1.732l1.998-.328c0-.843-.557-1.405-1.394-1.405-.697 0-1.209.375-1.534.796l-.511-.515c.418-.468 1.115-1.03 2.091-1.03 1.255-.047 2.138.89 2.138 2.154Zm-.743 1.077v-.375l-1.813.281c-.837.14-1.162.562-1.162 1.03 0 .469.418.937 1.162.937.976 0 1.813-.796 1.813-1.873Zm2.138-.328c0-1.639 1.255-2.903 2.789-2.903 1.115 0 1.905.656 2.277 1.124l-.558.468a2.075 2.075 0 0 0-1.673-.843c-1.115 0-1.998.937-1.998 2.154 0 1.217.883 2.154 1.998 2.154.837 0 1.395-.468 1.72-.89l.558.469c-.372.515-1.162 1.17-2.278 1.17-1.534 0-2.835-1.264-2.835-2.903Zm7.158-2.809h3.904V9.13h-.79V4.26h-2.371l-.046.844c-.093 3.324-.744 4.073-1.766 4.073-.233 0-.419-.093-.512-.093v-.75c.093.047.279.094.419.094.604 0 1.022-.468 1.069-3.324l.093-1.592Zm5.345 2.809c0-1.686 1.255-2.903 2.742-2.903 1.441 0 2.603 1.17 2.603 2.856 0 .14 0 .281-.046.375h-4.509a1.988 1.988 0 0 0 1.999 1.826c.836 0 1.348-.468 1.719-.843l.558.515c-.418.515-1.162 1.124-2.277 1.124-1.534-.047-2.789-1.311-2.789-2.95Zm4.555-.375c-.139-1.076-.837-1.779-1.813-1.779-1.022 0-1.812.796-1.952 1.78h3.765Zm2.185 3.184V3.512h2.509c1.07 0 1.72.655 1.72 1.498 0 .515-.325.937-.743 1.17.418.094.976.562.976 1.358 0 .89-.698 1.592-1.813 1.592h-2.649Zm.79-3.277h1.673c.604 0 .93-.328.93-.796s-.326-.796-.93-.796h-1.673v1.592Zm0 2.528h1.812c.698 0 1.023-.374 1.023-.89 0-.561-.325-.936-1.023-.936h-1.812v1.826Zm4.88-2.06c0-1.639 1.302-2.903 2.835-2.903 1.534 0 2.836 1.264 2.836 2.903s-1.255 2.903-2.836 2.903c-1.58 0-2.835-1.264-2.835-2.903Zm4.881 0c0-1.217-.93-2.154-2.046-2.154-1.115 0-2.045.937-2.045 2.154 0 1.217.93 2.154 2.045 2.154 1.116 0 2.046-.937 2.046-2.154Zm2.231 2.809V3.512h.79v4.307l3.346-4.307h.697V9.13h-.79V4.823l-3.346 4.307h-.697Zm.743-8.147h.697c0 .562.372.984.977.984.604 0 .976-.422.976-.984h.697c0 .984-.697 1.64-1.673 1.64-.93-.048-1.674-.656-1.674-1.64Zm13.433 9.552V9.13h-4.788V3.512h.791v4.822h3.114V3.512h.79v4.822h.883v2.154h-.79v.047Zm1.627-4.214c0-1.686 1.255-2.903 2.742-2.903 1.441 0 2.603 1.17 2.603 2.856 0 .14 0 .281-.047.375h-4.508a1.988 1.988 0 0 0 1.999 1.826c.836 0 1.347-.468 1.719-.843l.558.515c-.418.515-1.162 1.124-2.277 1.124-1.534-.047-2.789-1.311-2.789-2.95Zm4.555-.375c-.14-1.076-.837-1.779-1.813-1.779-1.022 0-1.813.796-1.952 1.78h3.765Zm2.184 3.184V3.512h.79V5.9h3.208V3.512h.79V9.13h-.79V6.65h-3.208v2.48h-.79Zm7.995 0V4.26h-2.045v-.748h4.834v.749h-1.999v4.823h-.79v.046Zm3.951 2.435V3.512h.79v.983c.279-.468.976-1.077 2.045-1.077 1.394 0 2.603 1.217 2.603 2.903s-1.209 2.903-2.603 2.903c-1.023 0-1.766-.609-2.045-1.077v3.418h-.79Zm4.648-5.244c0-1.264-.883-2.154-1.906-2.154-1.069 0-1.952.89-1.952 2.154 0 1.264.883 2.154 1.952 2.154 1.023 0 1.906-.89 1.906-2.154Zm4.927 5.244V3.512h.79v.983c.279-.468.976-1.077 2.045-1.077 1.394 0 2.603 1.217 2.603 2.903s-1.209 2.903-2.603 2.903c-1.023 0-1.766-.609-2.045-1.077v3.418h-.79Zm4.648-5.244c0-1.264-.884-2.154-1.906-2.154-1.069 0-1.952.89-1.952 2.154 0 1.264.883 2.154 1.952 2.154 1.022 0 1.906-.89 1.906-2.154Zm6.46-.749v3.512h-.743v-.89c-.233.468-.976 1.03-1.953 1.03-1.115 0-1.859-.75-1.859-1.592 0-.89.651-1.545 1.766-1.732l1.999-.328c0-.843-.558-1.405-1.394-1.405-.697 0-1.209.375-1.534.796l-.511-.515c.418-.468 1.115-1.03 2.091-1.03 1.209-.047 2.138.89 2.138 2.154Zm-.79 1.077v-.375l-1.813.281c-.836.14-1.162.562-1.162 1.03 0 .469.419.937 1.162.937 1.023 0 1.813-.796 1.813-1.873Zm1.952 1.591.558-.514c.279.328.79.749 1.534.749.837 0 1.301-.468 1.301-.937 0-.468-.464-.936-1.301-.936h-.651v-.75h.604c.698 0 1.116-.374 1.116-.842 0-.468-.372-.843-1.116-.843-.65 0-1.162.328-1.44.562l-.512-.515a2.826 2.826 0 0 1 1.952-.796c1.209 0 1.906.702 1.906 1.545 0 .703-.511 1.124-.976 1.264.511.094 1.162.562 1.162 1.358 0 .89-.79 1.64-2.092 1.64-1.022 0-1.766-.563-2.045-.984Zm5.764 3.325V3.512h.79v.983c.279-.468.976-1.077 2.045-1.077 1.394 0 2.603 1.217 2.603 2.903s-1.209 2.903-2.603 2.903c-1.023 0-1.766-.609-2.045-1.077v3.418h-.79Zm4.648-5.244c0-1.264-.883-2.154-1.906-2.154-1.069 0-1.952.89-1.952 2.154 0 1.264.883 2.154 1.952 2.154 1.023 0 1.906-.89 1.906-2.154Zm6.414-.749v3.512h-.744v-.89c-.232.468-.976 1.03-1.952 1.03-1.115 0-1.859-.75-1.859-1.592 0-.89.651-1.545 1.766-1.732l1.999-.328c0-.843-.558-1.405-1.395-1.405-.697 0-1.208.375-1.533.796l-.512-.562c.419-.468 1.116-1.03 2.092-1.03 1.255 0 2.138.937 2.138 2.2Zm-.744 1.077v-.375l-1.812.281c-.837.14-1.162.562-1.162 1.03 0 .469.418.937 1.162.937.976 0 1.812-.796 1.812-1.873Zm2.278-.983c0-2.903 1.208-4.12 2.882-4.449.883-.187 1.58-.468 1.859-.608l.372.655c-.279.188-1.023.515-2.092.75-1.301.28-2.045 1.123-2.185 2.809.279-.515.977-1.124 1.999-1.124 1.441 0 2.649 1.17 2.649 2.763 0 1.592-1.208 2.809-2.695 2.809-1.534-.047-2.789-1.264-2.789-3.605Zm4.694.749c0-1.17-.836-2.014-1.905-2.014s-1.906.843-1.906 2.014c0 1.17.837 2.013 1.906 2.013s1.905-.843 1.905-2.013Zm1.86-.094c0-1.639 1.301-2.903 2.835-2.903s2.835 1.264 2.835 2.903-1.255 2.903-2.835 2.903c-1.581 0-2.835-1.264-2.835-2.903Zm4.88 0c0-1.217-.93-2.154-2.045-2.154-1.116 0-2.045.937-2.045 2.154 0 1.217.929 2.154 2.045 2.154 1.115 0 2.045-.937 2.045-2.154Zm3.439 2.809V4.26h-1.998v-.748h4.834v.749h-1.999v4.823h-.837v.046Zm3.951 0V3.512h.79v2.996l2.789-2.996h1.023l-2.092 2.294 2.371 3.324h-.93l-1.952-2.762-1.162 1.264V9.13h-.837Zm5.95 0V3.512h.79v4.307l3.346-4.307h.697V9.13h-.79V4.823L262.24 9.13h-.697ZM102.535 23.177v-5.619h.79v4.308l3.347-4.308h.697v5.62h-.79V18.87l-3.347 4.307h-.697Zm9.389 0v-5.619h2.51c1.069 0 1.719.656 1.719 1.499 0 .515-.325.936-.743 1.17.418.094.976.562.976 1.358 0 .89-.697 1.592-1.813 1.592h-2.649Zm.79-3.277h1.673c.604 0 .93-.328.93-.796s-.326-.796-.93-.796h-1.673V19.9Zm0 2.528h1.813c.697 0 1.022-.375 1.022-.89 0-.561-.325-.936-1.022-.936h-1.813v1.826Zm5.252.749v-5.619h.79v2.389h3.207v-2.389h.79v5.62h-.79v-2.482h-3.207v2.481h-.79Zm6.275-2.809c0-1.686 1.255-2.903 2.742-2.903 1.441 0 2.603 1.17 2.603 2.856 0 .14 0 .281-.046.375h-4.509a1.988 1.988 0 0 0 1.999 1.826c.836 0 1.348-.468 1.719-.843l.558.515c-.418.515-1.162 1.124-2.277 1.124-1.534-.047-2.789-1.311-2.789-2.95Zm4.555-.375c-.14-1.077-.837-1.779-1.813-1.779-1.022 0-1.813.796-1.952 1.78h3.765Zm6.554 2.388h.883v2.154h-.79V23.13h-4.555v1.405h-.791v-2.154h.419c.418-.421.929-1.592.976-3.184l.046-1.639h3.765v4.823h.047Zm-.791 0v-4.073h-2.231v.843c-.046 1.591-.511 2.762-.883 3.183h3.114v.047Zm2.882 3.231V17.56h.79v.983c.279-.468.976-1.077 2.045-1.077 1.395 0 2.603 1.217 2.603 2.903s-1.208 2.903-2.603 2.903c-1.022 0-1.766-.609-2.045-1.077v3.418h-.79Zm4.648-5.244c0-1.264-.883-2.154-1.906-2.154-1.069 0-1.952.89-1.952 2.154 0 1.264.883 2.154 1.952 2.154 1.023 0 1.906-.89 1.906-2.154Zm1.859 0c0-1.686 1.255-2.903 2.743-2.903 1.441 0 2.603 1.17 2.603 2.856 0 .14 0 .281-.047.375h-4.508a1.987 1.987 0 0 0 1.998 1.826c.837 0 1.348-.468 1.72-.843l.558.515c-.419.515-1.162 1.124-2.278 1.124-1.534-.047-2.789-1.311-2.789-2.95Zm4.555-.375c-.139-1.077-.836-1.779-1.812-1.779-1.023 0-1.813.796-1.952 1.78h3.764Zm2.185 3.184v-5.619h.79v2.389h3.207v-2.389h.79v5.62h-.79v-2.482h-3.207v2.481h-.79Zm6.647 0v-5.619h.79v4.308l3.346-4.308h.698v5.62h-.791V18.87l-3.346 4.307h-.697Zm10.876-5.619v5.62h-.79v-2.014h-1.674l-1.162 2.013h-.929l1.348-2.154a1.698 1.698 0 0 1-1.209-1.638c0-1.03.79-1.78 2.045-1.78h2.371v-.047Zm-.79 2.857v-2.107h-1.581c-.836 0-1.255.468-1.255 1.03 0 .608.465 1.077 1.255 1.077h1.581Zm5.298 2.762v-5.619h.791v4.308l3.346-4.308h.697v5.62h-.79V18.87l-3.346 4.307h-.698Zm6.74 0v-5.619h.79v2.389h3.207v-2.389h.791v5.62h-.791v-2.482h-3.207v2.481h-.79Zm9.436 2.435v-2.294c-1.906-.047-3.161-1.311-3.161-2.95 0-1.592 1.255-2.856 3.161-2.95v-2.435h.79v2.435c1.905.047 3.16 1.311 3.16 2.95 0 1.592-1.255 2.856-3.16 2.95v2.294h-.79Zm0-7.445c-1.441 0-2.371.983-2.371 2.154 0 1.17.93 2.154 2.371 2.154v-4.308Zm.79 4.355c1.441 0 2.37-.983 2.37-2.154 0-1.217-.929-2.154-2.37-2.154v4.308Zm4.229-2.154c0-1.639 1.302-2.903 2.836-2.903 1.533 0 2.835 1.264 2.835 2.903s-1.255 2.903-2.835 2.903c-1.581 0-2.836-1.264-2.836-2.903Zm4.881 0c0-1.217-.93-2.154-2.045-2.154-1.116 0-2.046.937-2.046 2.154 0 1.217.93 2.154 2.046 2.154 1.115 0 2.045-.937 2.045-2.154Zm2.231 5.244V17.56h.79v.983c.279-.468.976-1.077 2.045-1.077 1.394 0 2.603 1.217 2.603 2.903s-1.209 2.903-2.603 2.903c-1.023 0-1.766-.609-2.045-1.077v3.418h-.79Zm4.648-5.244c0-1.264-.883-2.154-1.906-2.154-1.069 0-1.952.89-1.952 2.154 0 1.264.883 2.154 1.952 2.154 1.023 0 1.906-.89 1.906-2.154Zm2.231 2.809v-5.619h.651l2.184 2.857h.047l2.184-2.857h.651v5.62h-.79v-4.215h-.047l-2.045 2.622-2.045-2.622v4.214h-.79Zm11.759-3.558v3.511h-.744v-.89c-.232.469-.976 1.03-1.952 1.03-1.115 0-1.859-.748-1.859-1.591 0-.89.651-1.545 1.766-1.732l1.999-.328c0-.843-.558-1.405-1.394-1.405-.698 0-1.209.375-1.534.796l-.512-.515c.419-.468 1.116-1.03 2.092-1.03 1.255-.047 2.138.89 2.138 2.154Zm-.79 1.077v-.375l-1.813.281c-.836.14-1.162.562-1.162 1.03 0 .468.419.937 1.162.937 1.023 0 1.813-.796 1.813-1.873Zm7.39 3.886v-1.405h-4.787v-5.619h.79v4.823h3.114v-4.823h.79v4.823h.884v2.154h-.791v.047Zm1.953-1.405v-5.619h.79v4.308l3.346-4.308h.697v5.62h-.79V18.87l-3.346 4.307h-.697Zm6.321-2.809c0-1.639 1.301-2.903 2.835-2.903s2.835 1.264 2.835 2.903-1.255 2.903-2.835 2.903c-1.534 0-2.835-1.264-2.835-2.903Zm4.88 0c0-1.217-.929-2.154-2.045-2.154-1.115 0-2.045.937-2.045 2.154 0 1.217.93 2.154 2.045 2.154 1.162 0 2.045-.937 2.045-2.154Zm2.278 2.809v-5.619h.79v2.389h3.207v-2.389h.79v5.62h-.79v-2.482h-3.207v2.481h-.79Zm6.646 0v-5.619h.79v2.389h3.208v-2.389h.79v5.62h-.79v-2.482h-3.208v2.481h-.79Zm6.647 0v-5.619h.79v1.873h1.348c1.255 0 2.045.796 2.045 1.873s-.79 1.873-2.045 1.873h-2.138Zm.79-.749h1.348c.79 0 1.255-.468 1.255-1.124 0-.655-.465-1.123-1.255-1.123h-1.348v2.247Zm4.462.75v-5.62h.79v5.62h-.79Zm1.999-.001 2.091-2.903-1.905-2.669h.929l1.488 2.154 1.441-2.154h.929l-1.905 2.67 2.091 2.902h-.929l-1.627-2.388-1.627 2.388h-.976Zm8.459-2.809c0-1.639 1.255-2.903 2.789-2.903 1.116 0 1.906.655 2.278 1.124l-.558.468a2.078 2.078 0 0 0-1.674-.843c-1.115 0-1.998.937-1.998 2.154 0 1.217.883 2.154 1.998 2.154.837 0 1.395-.468 1.72-.89l.558.468c-.372.515-1.162 1.17-2.278 1.17-1.58 0-2.835-1.263-2.835-2.902Zm6.414 2.809v-5.619h.791v4.308l3.346-4.308h.697v5.62h-.743V18.87l-3.347 4.307h-.744Zm6.322-2.809c0-1.639 1.255-2.903 2.788-2.903 1.116 0 1.906.655 2.278 1.124l-.558.468a2.076 2.076 0 0 0-1.673-.843c-1.116 0-1.999.937-1.999 2.154 0 1.217.883 2.154 1.999 2.154.837 0 1.394-.468 1.72-.89l.557.468c-.371.515-1.161 1.17-2.277 1.17-1.58 0-2.835-1.263-2.835-2.902Zm7.622 2.809v-4.87h-1.998v-.748h4.834v.749h-1.999v4.822h-.837v.047Zm3.486-2.809c0-1.686 1.255-2.903 2.743-2.903 1.441 0 2.603 1.17 2.603 2.856 0 .14 0 .281-.047.375h-4.508a1.987 1.987 0 0 0 1.998 1.826c.837 0 1.348-.468 1.72-.843l.558.515c-.419.515-1.162 1.124-2.278 1.124-1.534-.047-2.789-1.311-2.789-2.95Zm4.555-.375c-.139-1.077-.836-1.779-1.812-1.779-1.023 0-1.813.796-1.952 1.78h3.764Zm2.185 3.184v-5.619h.651l2.184 2.857h.047l2.184-2.857H307v5.62h-.79v-4.215h-.047l-2.045 2.622-2.045-2.622v4.214h-.79Z"/></g><defs><clipPath id="a"><path fill="#fff" d="M0 0h307v28H0z"/></clipPath></defs></svg>