<svg width="307" height="28" viewBox="0 0 307 28" fill="none" xmlns="http://www.w3.org/2000/svg">
<g clip-path="url(#clip0_2_83)">
<path d="M42.4827 28V23.1773H26.0288V0.655518H32.1176V17.4181H39.6474V0.655518H45.7363V17.4181H48.618V28.0468H42.4827V28ZM50.942 23.1773V0.655518H61.0282C66.0015 0.655518 69.3481 4.02676 69.3481 8.56856C69.3481 13.0635 66.0015 16.4348 61.0282 16.4348H57.0309V23.1773H50.942ZM57.0309 10.9565H60.7028C62.1437 10.9565 63.2592 9.83278 63.2592 8.52174C63.2592 7.2107 62.1437 6.08696 60.7028 6.08696H57.0309V10.9565ZM71.6721 23.1773V0.655518H81.7582C86.871 0.655518 89.5668 3.37124 89.5668 6.60201C89.5668 8.89632 88.0795 10.7692 86.3597 11.2843C88.0795 11.8462 90.7288 13.7191 90.7288 16.903C90.7288 20.2742 87.8471 23.1773 82.5949 23.1773H71.6721ZM77.7609 9.31773H81.2934C82.5948 9.31773 83.385 8.52174 83.385 7.39799C83.385 6.27425 82.5948 5.47826 81.2934 5.47826H77.7609V9.31773ZM77.7609 18.3545H82.0836C83.5245 18.3545 84.5005 17.3712 84.5005 16.107C84.5005 14.8428 83.5245 13.8595 82.0836 13.8595H77.7609V18.3545ZM11.8524 0C5.29871 0 0 5.33779 0 11.9398C0 18.495 5.29871 23.8328 11.8524 23.8328C18.3596 23.8328 23.7048 18.495 23.7048 11.9398C23.6583 5.33779 18.3596 0 11.8524 0ZM11.8524 18.1204C8.45935 18.1204 5.71703 15.311 5.71703 11.9398C5.71703 8.52174 8.45935 5.71237 11.8524 5.71237C15.2454 5.71237 17.9877 8.52174 17.9877 11.9398C17.9877 15.311 15.2454 18.1204 11.8524 18.1204Z" fill="#ED202E"/>
<path d="M102.302 5.01004C102.302 2.6689 104.162 0.79599 106.486 0.79599C108.81 0.79599 110.669 2.6689 110.669 5.01004C110.669 7.35118 108.81 9.22408 106.486 9.22408C104.162 9.22408 102.302 7.35118 102.302 5.01004ZM109.832 5.01004C109.832 3.0903 108.391 1.6388 106.532 1.6388C104.673 1.6388 103.232 3.0903 103.232 5.01004C103.232 6.88295 104.719 8.38128 106.532 8.38128C108.345 8.4281 109.832 6.92977 109.832 5.01004Z" fill="black"/>
<path d="M113.643 9.13045V4.26088H111.645V3.51172H116.479V4.26088H114.48V9.08362H113.643V9.13045Z" fill="black"/>
<path d="M117.594 11.5652V3.51171H118.384V4.49498C118.663 4.02676 119.36 3.41806 120.43 3.41806C121.824 3.41806 123.032 4.63545 123.032 6.32107C123.032 8.00669 121.824 9.22408 120.43 9.22408C119.407 9.22408 118.663 8.61538 118.384 8.14716V11.5652H117.594ZM122.242 6.32107C122.242 5.05686 121.359 4.16722 120.337 4.16722C119.268 4.16722 118.384 5.05686 118.384 6.32107C118.384 7.58528 119.268 8.47492 120.337 8.47492C121.359 8.47492 122.242 7.58528 122.242 6.32107Z" fill="black"/>
<path d="M128.656 5.57191V9.08362H127.913V8.19398C127.68 8.66221 126.937 9.22408 125.961 9.22408C124.845 9.22408 124.101 8.47492 124.101 7.63211C124.101 6.74248 124.752 6.08696 125.868 5.89967L127.866 5.57191C127.866 4.7291 127.309 4.16723 126.472 4.16723C125.775 4.16723 125.263 4.54181 124.938 4.96321L124.427 4.44816C124.845 3.97994 125.542 3.41806 126.518 3.41806C127.773 3.37124 128.656 4.30769 128.656 5.57191ZM127.913 6.64883V6.27425L126.1 6.55519C125.263 6.69566 124.938 7.11706 124.938 7.58529C124.938 8.05352 125.356 8.52174 126.1 8.52174C127.076 8.52174 127.913 7.72576 127.913 6.64883Z" fill="black"/>
<path d="M130.051 6.32107C130.051 4.68227 131.306 3.41806 132.84 3.41806C133.955 3.41806 134.745 4.07358 135.117 4.54181L134.559 5.01003C134.281 4.63545 133.723 4.16722 132.886 4.16722C131.771 4.16722 130.888 5.10368 130.888 6.32107C130.888 7.53846 131.771 8.47492 132.886 8.47492C133.723 8.47492 134.281 8.00669 134.606 7.58528L135.164 8.05351C134.792 8.56856 134.002 9.22408 132.886 9.22408C131.352 9.22408 130.051 7.95987 130.051 6.32107Z" fill="black"/>
<path d="M137.209 3.51172H141.113V9.13045H140.323V4.26088H137.952L137.906 5.10369C137.813 8.42811 137.162 9.17727 136.14 9.17727C135.907 9.17727 135.721 9.08363 135.628 9.08363V8.33446C135.721 8.38128 135.907 8.42811 136.047 8.42811C136.651 8.42811 137.069 7.95988 137.116 5.10369L137.209 3.51172Z" fill="black"/>
<path d="M142.554 6.32107C142.554 4.63545 143.809 3.41806 145.296 3.41806C146.737 3.41806 147.899 4.58863 147.899 6.27425C147.899 6.41472 147.899 6.55518 147.853 6.64883H143.344C143.437 7.67893 144.274 8.47492 145.343 8.47492C146.179 8.47492 146.691 8.00669 147.062 7.63211L147.62 8.14716C147.202 8.66221 146.458 9.2709 145.343 9.2709C143.809 9.22408 142.554 7.95987 142.554 6.32107ZM147.109 5.94649C146.97 4.86957 146.272 4.16722 145.296 4.16722C144.274 4.16722 143.484 4.96321 143.344 5.94649H147.109Z" fill="black"/>
<path d="M149.294 9.13045V3.51172H151.803C152.873 3.51172 153.523 4.16724 153.523 5.01005C153.523 5.5251 153.198 5.9465 152.78 6.18061C153.198 6.27426 153.756 6.74249 153.756 7.53847C153.756 8.42811 153.058 9.13045 151.943 9.13045H149.294ZM150.084 5.85286H151.757C152.361 5.85286 152.687 5.5251 152.687 5.05687C152.687 4.58864 152.361 4.26088 151.757 4.26088H150.084V5.85286ZM150.084 8.38128H151.896C152.594 8.38128 152.919 8.0067 152.919 7.49165C152.919 6.92978 152.594 6.5552 151.896 6.5552H150.084V8.38128Z" fill="black"/>
<path d="M154.964 6.32107C154.964 4.68227 156.266 3.41806 157.799 3.41806C159.333 3.41806 160.635 4.68227 160.635 6.32107C160.635 7.95987 159.38 9.22408 157.799 9.22408C156.219 9.22408 154.964 7.95987 154.964 6.32107ZM159.845 6.32107C159.845 5.10368 158.915 4.16722 157.799 4.16722C156.684 4.16722 155.754 5.10368 155.754 6.32107C155.754 7.53846 156.684 8.47492 157.799 8.47492C158.915 8.47492 159.845 7.53846 159.845 6.32107Z" fill="black"/>
<path d="M162.076 9.13043V3.5117H162.866V7.8194L166.212 3.5117H166.909V9.13043H166.119V4.82274L162.773 9.13043H162.076ZM162.819 0.983276H163.516C163.516 1.54515 163.888 1.96655 164.493 1.96655C165.097 1.96655 165.469 1.54515 165.469 0.983276H166.166C166.166 1.96655 165.469 2.62207 164.493 2.62207C163.563 2.57525 162.819 1.96655 162.819 0.983276Z" fill="black"/>
<path d="M176.252 10.5351V9.13045H171.464V3.51172H172.255V8.33446H175.369V3.51172H176.159V8.33446H177.042V10.4883H176.252V10.5351Z" fill="black"/>
<path d="M177.879 6.32107C177.879 4.63545 179.134 3.41806 180.621 3.41806C182.062 3.41806 183.224 4.58863 183.224 6.27425C183.224 6.41472 183.224 6.55518 183.177 6.64883H178.669C178.762 7.67893 179.599 8.47492 180.668 8.47492C181.504 8.47492 182.015 8.00669 182.387 7.63211L182.945 8.14716C182.527 8.66221 181.783 9.2709 180.668 9.2709C179.134 9.22408 177.879 7.95987 177.879 6.32107ZM182.434 5.94649C182.294 4.86957 181.597 4.16722 180.621 4.16722C179.599 4.16722 178.808 4.96321 178.669 5.94649H182.434Z" fill="black"/>
<path d="M184.618 9.13045V3.51172H185.408V5.89968H188.616V3.51172H189.406V9.13045H188.616V6.64884H185.408V9.13045H184.618Z" fill="black"/>
<path d="M192.613 9.13045V4.26088H190.568V3.51172H195.402V4.26088H193.403V9.08362H192.613V9.13045Z" fill="black"/>
<path d="M196.564 11.5652V3.51171H197.354V4.49498C197.633 4.02676 198.33 3.41806 199.399 3.41806C200.793 3.41806 202.002 4.63545 202.002 6.32107C202.002 8.00669 200.793 9.22408 199.399 9.22408C198.376 9.22408 197.633 8.61538 197.354 8.14716V11.5652H196.564ZM201.212 6.32107C201.212 5.05686 200.329 4.16722 199.306 4.16722C198.237 4.16722 197.354 5.05686 197.354 6.32107C197.354 7.58528 198.237 8.47492 199.306 8.47492C200.329 8.47492 201.212 7.58528 201.212 6.32107Z" fill="black"/>
<path d="M206.139 11.5652V3.51171H206.929V4.49498C207.208 4.02676 207.905 3.41806 208.974 3.41806C210.368 3.41806 211.577 4.63545 211.577 6.32107C211.577 8.00669 210.368 9.22408 208.974 9.22408C207.951 9.22408 207.208 8.61538 206.929 8.14716V11.5652H206.139ZM210.787 6.32107C210.787 5.05686 209.903 4.16722 208.881 4.16722C207.812 4.16722 206.929 5.05686 206.929 6.32107C206.929 7.58528 207.812 8.47492 208.881 8.47492C209.903 8.47492 210.787 7.58528 210.787 6.32107Z" fill="black"/>
<path d="M217.247 5.57191V9.08362H216.504V8.19398C216.271 8.66221 215.528 9.22408 214.551 9.22408C213.436 9.22408 212.692 8.47492 212.692 7.63211C212.692 6.74248 213.343 6.08696 214.458 5.89967L216.457 5.57191C216.457 4.7291 215.899 4.16723 215.063 4.16723C214.366 4.16723 213.854 4.54181 213.529 4.96321L213.018 4.44816C213.436 3.97994 214.133 3.41806 215.109 3.41806C216.318 3.37124 217.247 4.30769 217.247 5.57191ZM216.457 6.64883V6.27425L214.644 6.55519C213.808 6.69566 213.482 7.11706 213.482 7.58529C213.482 8.05352 213.901 8.52174 214.644 8.52174C215.667 8.52174 216.457 7.72576 216.457 6.64883Z" fill="black"/>
<path d="M218.409 8.2408L218.967 7.72575C219.246 8.05351 219.757 8.47492 220.501 8.47492C221.338 8.47492 221.802 8.00669 221.802 7.53846C221.802 7.07023 221.338 6.60201 220.501 6.60201H219.85V5.85284H220.454C221.152 5.85284 221.57 5.47826 221.57 5.01003C221.57 4.54181 221.198 4.16722 220.454 4.16722C219.804 4.16722 219.292 4.49498 219.014 4.7291L218.502 4.21405C218.828 3.88629 219.525 3.41806 220.454 3.41806C221.663 3.41806 222.36 4.1204 222.36 4.96321C222.36 5.66555 221.849 6.08696 221.384 6.22742C221.895 6.32107 222.546 6.7893 222.546 7.58528C222.546 8.47492 221.756 9.22408 220.454 9.22408C219.432 9.22408 218.688 8.66221 218.409 8.2408Z" fill="black"/>
<path d="M224.173 11.5652V3.51171H224.963V4.49498C225.242 4.02676 225.939 3.41806 227.008 3.41806C228.402 3.41806 229.611 4.63545 229.611 6.32107C229.611 8.00669 228.402 9.22408 227.008 9.22408C225.985 9.22408 225.242 8.61538 224.963 8.14716V11.5652H224.173ZM228.821 6.32107C228.821 5.05686 227.938 4.16722 226.915 4.16722C225.846 4.16722 224.963 5.05686 224.963 6.32107C224.963 7.58528 225.846 8.47492 226.915 8.47492C227.938 8.47492 228.821 7.58528 228.821 6.32107Z" fill="black"/>
<path d="M235.235 5.57192V9.08362H234.491V8.19399C234.259 8.66222 233.515 9.22409 232.539 9.22409C231.424 9.22409 230.68 8.47493 230.68 7.63212C230.68 6.74248 231.331 6.08697 232.446 5.89967L234.445 5.57192C234.445 4.72911 233.887 4.16723 233.05 4.16723C232.353 4.16723 231.842 4.54182 231.517 4.96322L231.005 4.40135C231.424 3.93312 232.121 3.37125 233.097 3.37125C234.352 3.37125 235.235 4.3077 235.235 5.57192ZM234.491 6.64884V6.27426L232.679 6.55519C231.842 6.69566 231.517 7.11707 231.517 7.58529C231.517 8.05352 231.935 8.52175 232.679 8.52175C233.655 8.52175 234.491 7.72576 234.491 6.64884Z" fill="black"/>
<path d="M236.769 5.66556C236.769 2.76255 237.977 1.54516 239.651 1.2174C240.534 1.03011 241.231 0.749172 241.51 0.608704L241.882 1.26422C241.603 1.45151 240.859 1.77927 239.79 2.01339C238.489 2.29432 237.745 3.13713 237.605 4.82275C237.884 4.3077 238.582 3.699 239.604 3.699C241.045 3.699 242.253 4.86957 242.253 6.46155C242.253 8.05352 241.045 9.27091 239.558 9.27091C238.024 9.22409 236.769 8.0067 236.769 5.66556ZM241.463 6.41472C241.463 5.24415 240.627 4.40135 239.558 4.40135C238.489 4.40135 237.652 5.24415 237.652 6.41472C237.652 7.58529 238.489 8.4281 239.558 8.4281C240.627 8.4281 241.463 7.58529 241.463 6.41472Z" fill="black"/>
<path d="M243.323 6.32107C243.323 4.68227 244.624 3.41806 246.158 3.41806C247.692 3.41806 248.993 4.68227 248.993 6.32107C248.993 7.95987 247.738 9.22408 246.158 9.22408C244.577 9.22408 243.323 7.95987 243.323 6.32107ZM248.203 6.32107C248.203 5.10368 247.273 4.16722 246.158 4.16722C245.042 4.16722 244.113 5.10368 244.113 6.32107C244.113 7.53846 245.042 8.47492 246.158 8.47492C247.273 8.47492 248.203 7.53846 248.203 6.32107Z" fill="black"/>
<path d="M251.642 9.13045V4.26088H249.644V3.51172H254.478V4.26088H252.479V9.08362H251.642V9.13045Z" fill="black"/>
<path d="M255.593 9.13045V3.51172H256.383V6.50837L259.172 3.51172H260.195L258.103 5.80603L260.474 9.13045H259.544L257.592 6.36791L256.43 7.63212V9.13045H255.593Z" fill="black"/>
<path d="M261.543 9.13045V3.51172H262.333V7.81941L265.679 3.51172H266.376V9.13045H265.586V4.82276L262.24 9.13045H261.543Z" fill="black"/>
<path d="M102.535 23.1773V17.5585H103.325V21.8662L106.672 17.5585H107.369V23.1773H106.579V18.8696L103.232 23.1773H102.535Z" fill="black"/>
<path d="M111.924 23.1773V17.5585H114.434C115.503 17.5585 116.153 18.2141 116.153 19.0569C116.153 19.5719 115.828 19.9933 115.41 20.2274C115.828 20.3211 116.386 20.7893 116.386 21.5853C116.386 22.4749 115.689 23.1773 114.573 23.1773H111.924ZM112.714 19.8997H114.387C114.991 19.8997 115.317 19.5719 115.317 19.1037C115.317 18.6355 114.991 18.3077 114.387 18.3077H112.714V19.8997ZM112.714 22.4281H114.527C115.224 22.4281 115.549 22.0535 115.549 21.5385C115.549 20.9766 115.224 20.602 114.527 20.602H112.714V22.4281Z" fill="black"/>
<path d="M117.966 23.1773V17.5585H118.756V19.9465H121.963V17.5585H122.753V23.1773H121.963V20.6957H118.756V23.1773H117.966Z" fill="black"/>
<path d="M124.241 20.3679C124.241 18.6823 125.496 17.4649 126.983 17.4649C128.424 17.4649 129.586 18.6355 129.586 20.3211C129.586 20.4616 129.586 20.602 129.54 20.6957H125.031C125.124 21.7258 125.961 22.5218 127.03 22.5218C127.866 22.5218 128.378 22.0535 128.749 21.679L129.307 22.194C128.889 22.7091 128.145 23.3177 127.03 23.3177C125.496 23.2709 124.241 22.0067 124.241 20.3679ZM128.796 19.9933C128.656 18.9164 127.959 18.2141 126.983 18.2141C125.961 18.2141 125.17 19.0101 125.031 19.9933H128.796Z" fill="black"/>
<path d="M135.35 22.3813H136.233V24.5351H135.443V23.1304H130.888V24.5351H130.097V22.3813H130.516C130.934 21.9599 131.445 20.7893 131.492 19.1973L131.538 17.5585H135.303V22.3813H135.35ZM134.559 22.3813V18.3077H132.328V19.1505C132.282 20.7425 131.817 21.913 131.445 22.3345H134.559V22.3813Z" fill="black"/>
<path d="M137.441 25.6121V17.5586H138.231V18.5418C138.51 18.0736 139.207 17.4649 140.276 17.4649C141.671 17.4649 142.879 18.6823 142.879 20.3679C142.879 22.0535 141.671 23.2709 140.276 23.2709C139.254 23.2709 138.51 22.6622 138.231 22.194V25.6121H137.441ZM142.089 20.3679C142.089 19.1037 141.206 18.2141 140.183 18.2141C139.114 18.2141 138.231 19.1037 138.231 20.3679C138.231 21.6321 139.114 22.5218 140.183 22.5218C141.206 22.5218 142.089 21.6321 142.089 20.3679Z" fill="black"/>
<path d="M143.948 20.3679C143.948 18.6823 145.203 17.4649 146.691 17.4649C148.132 17.4649 149.294 18.6355 149.294 20.3211C149.294 20.4616 149.294 20.602 149.247 20.6957H144.739C144.831 21.7258 145.668 22.5218 146.737 22.5218C147.574 22.5218 148.085 22.0535 148.457 21.679L149.015 22.194C148.596 22.7091 147.853 23.3177 146.737 23.3177C145.203 23.2709 143.948 22.0067 143.948 20.3679ZM148.503 19.9933C148.364 18.9164 147.667 18.2141 146.691 18.2141C145.668 18.2141 144.878 19.0101 144.739 19.9933H148.503Z" fill="black"/>
<path d="M150.688 23.1773V17.5585H151.478V19.9465H154.685V17.5585H155.475V23.1773H154.685V20.6957H151.478V23.1773H150.688Z" fill="black"/>
<path d="M157.335 23.1773V17.5585H158.125V21.8662L161.471 17.5585H162.169V23.1773H161.378V18.8696L158.032 23.1773H157.335Z" fill="black"/>
<path d="M168.211 17.5585V23.1773H167.421V21.1639H165.84H165.747L164.585 23.1773H163.656L165.004 21.0234C164.26 20.7893 163.795 20.1338 163.795 19.3846C163.795 18.3545 164.585 17.6054 165.84 17.6054H168.211V17.5585ZM167.421 20.4147V18.3077H165.84C165.004 18.3077 164.585 18.7759 164.585 19.3378C164.585 19.9465 165.05 20.4147 165.84 20.4147H167.421Z" fill="black"/>
<path d="M172.719 23.1773V17.5585H173.51V21.8662L176.856 17.5585H177.553V23.1773H176.763V18.8696L173.417 23.1773H172.719Z" fill="black"/>
<path d="M179.459 23.1773V17.5585H180.249V19.9465H183.456V17.5585H184.247V23.1773H183.456V20.6957H180.249V23.1773H179.459Z" fill="black"/>
<path d="M188.895 25.612V23.3177C186.989 23.2709 185.734 22.0067 185.734 20.3679C185.734 18.7759 186.989 17.5117 188.895 17.4181V14.9833H189.685V17.4181C191.59 17.4649 192.845 18.7291 192.845 20.3679C192.845 21.9599 191.59 23.2241 189.685 23.3177V25.612H188.895ZM188.895 18.1672C187.454 18.1672 186.524 19.1505 186.524 20.3211C186.524 21.4916 187.454 22.4749 188.895 22.4749V18.1672ZM189.685 22.5217C191.126 22.5217 192.055 21.5385 192.055 20.3679C192.055 19.1505 191.126 18.214 189.685 18.214V22.5217Z" fill="black"/>
<path d="M193.914 20.3679C193.914 18.7291 195.216 17.4649 196.75 17.4649C198.283 17.4649 199.585 18.7291 199.585 20.3679C199.585 22.0067 198.33 23.2709 196.75 23.2709C195.169 23.2709 193.914 22.0067 193.914 20.3679ZM198.795 20.3679C198.795 19.1505 197.865 18.2141 196.75 18.2141C195.634 18.2141 194.704 19.1505 194.704 20.3679C194.704 21.5853 195.634 22.5218 196.75 22.5218C197.865 22.5218 198.795 21.5853 198.795 20.3679Z" fill="black"/>
<path d="M201.026 25.6121V17.5586H201.816V18.5418C202.095 18.0736 202.792 17.4649 203.861 17.4649C205.255 17.4649 206.464 18.6823 206.464 20.3679C206.464 22.0535 205.255 23.2709 203.861 23.2709C202.838 23.2709 202.095 22.6622 201.816 22.194V25.6121H201.026ZM205.674 20.3679C205.674 19.1037 204.791 18.2141 203.768 18.2141C202.699 18.2141 201.816 19.1037 201.816 20.3679C201.816 21.6321 202.699 22.5218 203.768 22.5218C204.791 22.5218 205.674 21.6321 205.674 20.3679Z" fill="black"/>
<path d="M207.905 23.1773V17.5585H208.556L210.74 20.4147H210.787L212.971 17.5585H213.622V23.1773H212.832V18.9632H212.785L210.74 21.5853L208.695 18.9632V23.1773H207.905Z" fill="black"/>
<path d="M219.664 19.6187V23.1304H218.92V22.2408C218.688 22.709 217.944 23.2709 216.968 23.2709C215.853 23.2709 215.109 22.5217 215.109 21.6789C215.109 20.7893 215.76 20.1338 216.875 19.9465L218.874 19.6187C218.874 18.7759 218.316 18.214 217.48 18.214C216.782 18.214 216.271 18.5886 215.946 19.01L215.434 18.495C215.853 18.0268 216.55 17.4649 217.526 17.4649C218.781 17.4181 219.664 18.3545 219.664 19.6187ZM218.874 20.6956V20.3211L217.061 20.602C216.225 20.7425 215.899 21.1639 215.899 21.6321C215.899 22.1003 216.318 22.5686 217.061 22.5686C218.084 22.5686 218.874 21.7726 218.874 20.6956Z" fill="black"/>
<path d="M226.264 24.5819V23.1773H221.477V17.5585H222.267V22.3813H225.381V17.5585H226.171V22.3813H227.055V24.5351H226.264V24.5819Z" fill="black"/>
<path d="M228.217 23.1773V17.5585H229.007V21.8662L232.353 17.5585H233.05V23.1773H232.26V18.8696L228.914 23.1773H228.217Z" fill="black"/>
<path d="M234.538 20.3679C234.538 18.7291 235.839 17.4649 237.373 17.4649C238.907 17.4649 240.208 18.7291 240.208 20.3679C240.208 22.0067 238.953 23.2709 237.373 23.2709C235.839 23.2709 234.538 22.0067 234.538 20.3679ZM239.418 20.3679C239.418 19.1505 238.489 18.2141 237.373 18.2141C236.258 18.2141 235.328 19.1505 235.328 20.3679C235.328 21.5853 236.258 22.5218 237.373 22.5218C238.535 22.5218 239.418 21.5853 239.418 20.3679Z" fill="black"/>
<path d="M241.696 23.1773V17.5585H242.486V19.9465H245.693V17.5585H246.483V23.1773H245.693V20.6957H242.486V23.1773H241.696Z" fill="black"/>
<path d="M248.342 23.1773V17.5585H249.132V19.9465H252.34V17.5585H253.13V23.1773H252.34V20.6957H249.132V23.1773H248.342Z" fill="black"/>
<path d="M254.989 23.1773V17.5585H255.779V19.4314H257.127C258.382 19.4314 259.172 20.2274 259.172 21.3044C259.172 22.3813 258.382 23.1773 257.127 23.1773H254.989ZM255.779 22.4281H257.127C257.917 22.4281 258.382 21.9599 258.382 21.3044C258.382 20.6488 257.917 20.1806 257.127 20.1806H255.779V22.4281ZM260.241 23.1773V17.5585H261.031V23.1773H260.241Z" fill="black"/>
<path d="M262.24 23.1773L264.331 20.2742L262.426 17.6053H263.355L264.843 19.7592L266.284 17.6053H267.213L265.308 20.2742L267.399 23.1773H266.47L264.843 20.7893L263.216 23.1773H262.24Z" fill="black"/>
<path d="M270.699 20.3679C270.699 18.7291 271.954 17.4649 273.488 17.4649C274.604 17.4649 275.394 18.1204 275.766 18.5887L275.208 19.0569C274.929 18.6823 274.371 18.2141 273.534 18.2141C272.419 18.2141 271.536 19.1505 271.536 20.3679C271.536 21.5853 272.419 22.5218 273.534 22.5218C274.371 22.5218 274.929 22.0535 275.254 21.6321L275.812 22.1004C275.44 22.6154 274.65 23.2709 273.534 23.2709C271.954 23.2709 270.699 22.0067 270.699 20.3679Z" fill="black"/>
<path d="M277.113 23.1773V17.5585H277.904V21.8662L281.25 17.5585H281.947V23.1773H281.204V18.8696L277.857 23.1773H277.113Z" fill="black"/>
<path d="M283.435 20.3679C283.435 18.7291 284.69 17.4649 286.223 17.4649C287.339 17.4649 288.129 18.1204 288.501 18.5887L287.943 19.0569C287.664 18.6823 287.107 18.2141 286.27 18.2141C285.154 18.2141 284.271 19.1505 284.271 20.3679C284.271 21.5853 285.154 22.5218 286.27 22.5218C287.107 22.5218 287.664 22.0535 287.99 21.6321L288.547 22.1004C288.176 22.6154 287.386 23.2709 286.27 23.2709C284.69 23.2709 283.435 22.0067 283.435 20.3679Z" fill="black"/>
<path d="M291.057 23.1773V18.3077H289.059V17.5585H293.893V18.3077H291.894V23.1304H291.057V23.1773Z" fill="black"/>
<path d="M294.543 20.3679C294.543 18.6823 295.798 17.4649 297.286 17.4649C298.727 17.4649 299.889 18.6355 299.889 20.3211C299.889 20.4616 299.889 20.602 299.842 20.6957H295.334C295.427 21.7258 296.263 22.5218 297.332 22.5218C298.169 22.5218 298.68 22.0535 299.052 21.679L299.61 22.194C299.191 22.7091 298.448 23.3177 297.332 23.3177C295.798 23.2709 294.543 22.0067 294.543 20.3679ZM299.098 19.9933C298.959 18.9164 298.262 18.2141 297.286 18.2141C296.263 18.2141 295.473 19.0101 295.334 19.9933H299.098Z" fill="black"/>
<path d="M301.283 23.1773V17.5585H301.934L304.118 20.4147H304.165L306.349 17.5585H307V23.1773H306.21V18.9632H306.163L304.118 21.5853L302.073 18.9632V23.1773H301.283Z" fill="black"/>
</g>
<defs>
<clipPath id="clip0_2_83">
<rect width="307" height="28" fill="white"/>
</clipPath>
</defs>
</svg>
