<svg xmlns="http://www.w3.org/2000/svg" width="400" height="80"><defs><linearGradient id="c" x1="5.8" x2="10.4" y1="18.5" y2="17.9" gradientTransform="matrix(4.7565 0 0 2.8737 9.7 10.3)" gradientUnits="userSpaceOnUse"><stop offset=".1" stop-color="#A3CD39"/><stop offset=".3" stop-color="#86C339"/><stop offset=".9" stop-color="#21A038"/></linearGradient><linearGradient id="b" x1="2.3" x2="6.3" y1="2.9" y2="2" gradientTransform="matrix(4.7565 0 0 2.8737 9.7 10.3)" gradientUnits="userSpaceOnUse"><stop offset=".1" stop-color="#0FA8E0"/><stop offset=".5" stop-color="#0099F9"/><stop offset=".9" stop-color="#0291EB"/></linearGradient><linearGradient id="a" x1="2.9" x2="1.9" y1="10.4" y2="5.9" gradientTransform="matrix(2.8737 0 0 4.7565 9.7 10.3)" gradientUnits="userSpaceOnUse"><stop offset=".1" stop-color="#F2E913"/><stop offset=".3" stop-color="#E7E518"/><stop offset=".6" stop-color="#CADB26"/><stop offset=".9" stop-color="#A3CD39"/></linearGradient><linearGradient id="f" x1="1.8" x2="3" y1="6.7" y2="2.1" gradientTransform="matrix(2.9905 0 0 4.5708 9.7 10.3)" gradientUnits="userSpaceOnUse"><stop offset=".1" stop-color="#A3CD39"/><stop offset=".3" stop-color="#81C55F"/><stop offset=".9" stop-color="#0FA8E0"/></linearGradient><linearGradient id="e" x1="2.1" x2="6.5" y1="16.9" y2="18" gradientTransform="matrix(4.5708 0 0 2.9905 9.7 10.3)" gradientUnits="userSpaceOnUse"><stop offset=".1" stop-color="#F2E913"/><stop offset=".3" stop-color="#EBE716"/><stop offset=".5" stop-color="#D9E01F"/><stop offset=".8" stop-color="#BBD62D"/><stop offset="1" stop-color="#A3CD39"/></linearGradient><linearGradient id="d" x1="5.8" x2="9.6" y1="1.7" y2="2.4" gradientTransform="matrix(4.8418 0 0 2.8231 9.7 10.3)" gradientUnits="userSpaceOnUse"><stop offset=".1" stop-color="#0291EB"/><stop offset=".8" stop-color="#0C8ACB"/></linearGradient></defs><path fill="#21a038" d="M100.6 21.8c-10.6 0-14.4 5.7-14.4 10.9 0 7.6 6.6 9.2 12.5 10.6 4 1 7.6 1.8 7.6 4.7 0 1.5-.9 4-6.8 4-4 0-8-1.4-11.3-3.7l-2.6 6a24 24 0 0 0 13.8 3.9c8.8 0 14.5-4.3 14.5-10.8 0-7.5-6.7-9-12.5-10.4-4.1-1-7.6-1.8-7.6-4.7 0-3.8 4.7-4.2 6.7-4.2a13 13 0 0 1 6.5 1.3l5.6-4.1a24 24 0 0 0-12-3.5zm92.5.6v35.2h7.6v-10h7.5l6.8 10h8.1l-7.7-11.4c4.6-2 7.2-6 7.2-11.2 0-7.8-5.8-12.6-15-12.6h-14.5zm163 0v35.2h7.7V43.4h4.7l11.7 14.2h9.8l-15.6-18.2 13.6-17h-8.7l-11.3 15h-4.2v-15h-7.6zm-196.8 0v35.3H186v-6h-19v-9h16.2V37H167v-8.6h11l8-5.9h-26.7zm128.6 0-15.1 35.3h7.7l3-7.1h16.2l2.9 7h8l-14.9-35.2H288zm27.5 0v35.3h7.4V34.6l17.5 23h7.2V22.5h-7.3v23.2l-17.5-23.2h-7.3zm-194.4 0v35.3h17.6c8.8 0 13.6-3.4 13.6-9.5 0-4.3-2.2-7.4-6.1-8.7l-.4-.1.4-.2a8.4 8.4 0 0 0 4.5-7.7c0-5.7-4.9-9-13-9H121zm117.7 0v35.3h17.7c8.7 0 13.6-3.4 13.6-9.5 0-4.1-2.3-7.3-6.2-8.6l-.3-.2.3-.2a8.4 8.4 0 0 0 4.5-7.7c0-5.7-4.8-9-13-9h-16.6zm-110.1 6h8c5.2 0 6.2 2.3 6.2 4.2 0 2.9-2.1 4.4-6.2 4.4h-8v-8.7zm125.8 0c5 0 6.2 2.3 6.2 4.2 0 2.9-2.2 4.4-6.2 4.4h-8v-8.6h8zm-53.7 0h6.7c5 0 7.6 2.3 7.6 6.7 0 4.3-2.7 6.7-7.6 6.7h-6.7V28.3zm91 2.1 5.6 14.1h-11.5l6-14.1zM128.6 42.8h9.4c4.4 0 6.5 1.5 6.5 4.5s-2 4.5-6.5 4.5h-9.4v-9zm117.7 0h9.5c4.3 0 6.5 1.5 6.5 4.5s-2.1 4.5-6.5 4.5h-9.5v-9zM62.4 22.1C63.8 24 65 26 66 28L39.3 47.6l-11.2-7v-8.4l11.2 7z"/><path fill="url(#a)" d="M16.8 40v-1l-6.7-.4L10 40c0 8 3.3 15.4 8.6 20.7l4.8-4.8A22 22 0 0 1 16.8 40z"/><path fill="url(#b)" d="M39.3 17.5h1.1l.4-6.7h-1.5c-8 0-15.4 3.3-20.7 8.6l4.8 4.8c4-4.1 9.7-6.7 15.9-6.7z"/><path fill="url(#c)" d="M39.3 62.5H38l-.3 6.7h1.4c8 0 15.4-3.2 20.7-8.5L55 55.9a22 22 0 0 1-15.8 6.6z"/><path fill="url(#d)" d="m52 21.4 5.7-4.2c-5-4-11.5-6.5-18.4-6.5v6.8c4.7 0 9 1.5 12.6 4z"/><path fill="#21a038" d="M68.6 40c0-1.8-.2-3.5-.5-5.2l-6.3 4.6v.6c0 6.7-2.9 12.6-7.4 16.7l4.5 5A29.2 29.2 0 0 0 68.6 40z"/><path fill="url(#e)" d="M39.3 62.5c-6.7 0-12.6-2.9-16.7-7.4l-5 4.5c5.3 6 13 9.7 21.7 9.7z"/><path fill="url(#f)" d="m24.2 23.4-4.6-5c-6 5.3-9.6 13-9.6 21.6h6.8c0-6.6 2.8-12.6 7.4-16.7z"/></svg>