<svg xmlns="http://www.w3.org/2000/svg" width="270.5" height="94.6"><defs><clipPath id="a"><path fill="none" d="M0 0h270.5v94.6H0z"/></clipPath></defs><g clip-path="url(#a)"><path fill="#ff0087" d="M119 82.2c-.2.6-.4.7-1 .7h-4.5a1 1 0 0 1-1-.7l-12-30.2c-.3-.4-.2-1 .4-1h4a1 1 0 0 1 1.1.8l10 26 9.9-26a1 1 0 0 1 1-.8h4c.8 0 .8.6.5 1Zm18-40.9a3 3 0 1 1 3 3 3 3 0 0 1-3-3m1.2 9.7h3.8a.7.7 0 0 1 .6.7v30.4a.6.6 0 0 1-.6.6h-3.8a.7.7 0 0 1-.7-.6V51.7a.8.8 0 0 1 .7-.7m14.8 6.5c-.5.3-.8.2-1-.2l-1.2-2.6c-.2-.4-.1-.6.4-1a22.3 22.3 0 0 1 12-3.2c3 0 6.8.6 9.3 3.4 1.6 1.9 2.6 4.5 2.6 8.6V82a.6.6 0 0 1-.6.7h-3.3a.6.6 0 0 1-.6-.7v-1h-.3a17.4 17.4 0 0 1-9.6 2.4 13.6 13.6 0 0 1-7.8-2.3 8.4 8.4 0 0 1-3.6-7c0-4.4 2.6-6.9 6.5-8.3 4.3-1.7 10-2 14.2-2.3v-1c0-2.8-.5-4.5-1.6-5.9-1.4-1.6-3.7-2-5.8-2a18.3 18.3 0 0 0-9.6 2.8m17 19.9v-10a48 48 0 0 0-10.5 1.3c-3 .8-5.3 2.4-5.3 5.2 0 3.9 4 5.5 8 5.5a17.2 17.2 0 0 0 7.8-2"/><path fill="#540083" d="M188.5 54.8a11 11 0 0 1 9.3-4.3 11.8 11.8 0 0 1 7.1 2 9.5 9.5 0 0 1 3.4 4.6 11.3 11.3 0 0 1 4.2-5 12.3 12.3 0 0 1 6.5-1.6c3.3 0 6.4.8 8.7 3 2 2 3.4 5.1 3.4 9.7v18.9a.6.6 0 0 1-.7.6h-3.8a.7.7 0 0 1-.7-.6V64.5c0-3.2-.7-5.8-2.1-7.4A7.4 7.4 0 0 0 218 55a7.1 7.1 0 0 0-6.4 3.3 16.9 16.9 0 0 0-1.8 8.7v15.1a.6.6 0 0 1-.7.6h-3.8a.7.7 0 0 1-.7-.6V64.5c0-3.2-.7-5.8-2.1-7.4a7.4 7.4 0 0 0-5.8-2.1 7.1 7.1 0 0 0-6.4 3.3 16 16 0 0 0-1.8 8v15.8a.6.6 0 0 1-.6.6H184a.7.7 0 0 1-.7-.6V51.7a.8.8 0 0 1 .7-.7h3.6a.8.8 0 0 1 .7.7v3.1Zm53.2.4a17.7 17.7 0 0 1 24.1 0 17 17 0 0 1 0 23.5 17.7 17.7 0 0 1-24.1 0 17 17 0 0 1 0-23.5m3.5 20.3a11.7 11.7 0 0 0 17.1 0 13.2 13.2 0 0 0 0-17.1 11.7 11.7 0 0 0-17.1 0 13.2 13.2 0 0 0 0 17.1M38.8 94.6 85 55.9l-85-31Z"/><path fill="#ff0087" d="M83.1 49.7 53.7 0v39Z"/></g></svg>