<svg xmlns="http://www.w3.org/2000/svg" xml:space="preserve" style="fill-rule:evenodd;clip-rule:evenodd;stroke-linejoin:round;stroke-miterlimit:2" viewBox="0 0 32 32"><path d="M0 0h32v32H0z" style="fill:none"/><clipPath id="a"><path d="M0 0h32v32H0z"/></clipPath><g clip-path="url(#a)"><path d="M12 11.1c0-.5.2-1.1.4-1.7l1.3-5.3.4-1.5v-.2l.5-.8A3.5 3.5 0 0 1 17.4 0h.2a310.7 310.7 0 0 1 .6 0 3.4 3.4 0 0 1 1.7 1c.4.3.8.9 1 1.5h.8a3.5 3.5 0 0 1 2.7 4.1 167.9 167.9 0 0 1-1.3 5.5L22 16.5v.4l.8-.6a6.1 6.1 0 0 1 3.4-1h.3l1.2.2a6.1 6.1 0 0 1 2.7 1.6l1.5 1.4-3 3-8 7.9a14.1 14.1 0 0 1-1.4 1.1A9.3 9.3 0 0 1 14 32a12 12 0 0 1-3.6-.6A11 11 0 0 1 3 21v-1.8l-.6-1.8-1.7-5.3-.5-1.5v-.2L0 10V9a3.5 3.5 0 0 1 3.3-3h.2a3.4 3.4 0 0 1 .6-2 3.5 3.5 0 0 1 2.6-1.5h.8l.6.2A3.5 3.5 0 0 1 10.3 5a165.4 165.4 0 0 1 1.4 5.4l.2.7Z"/><path d="m13 15 3-11.9.2-.4a1.5 1.5 0 0 1 1.9-.6 1.5 1.5 0 0 1 .9 1.7L16.4 14h1l2.1-8.4.2-.4a1.5 1.5 0 0 1 2-.5 1.5 1.5 0 0 1 .8 1.6l-2.5 10v3.1a1 1 0 0 0 1.7.7l1.4-1.5a4 4 0 0 1 5.9-.1l-9.4 9.4a7.3 7.3 0 0 1-5.1 2.1H14a9 9 0 0 1-9-9v-2.1l-3-9v-.5A1.5 1.5 0 0 1 3.4 8H4a1.5 1.5 0 0 1 1 1 203 203 0 0 1 2.4 7H8L5.5 6.4v-.5A1.5 1.5 0 0 1 7 4.5h.5a1.5 1.5 0 0 1 1 1l2.3 9.5h2.3Z" style="fill:#ffd877"/><clipPath id="b"><path d="m13 15 3-11.9.2-.4a1.5 1.5 0 0 1 1.9-.6 1.5 1.5 0 0 1 .9 1.7L16.4 14h1l2.1-8.4.2-.4a1.5 1.5 0 0 1 2-.5 1.5 1.5 0 0 1 .8 1.6l-2.5 10v3.1a1 1 0 0 0 1.7.7l1.4-1.5a4 4 0 0 1 5.9-.1l-9.4 9.4a7.3 7.3 0 0 1-5.1 2.1H14a9 9 0 0 1-9-9v-2.1l-3-9v-.5A1.5 1.5 0 0 1 3.4 8H4a1.5 1.5 0 0 1 1 1 203 203 0 0 1 2.4 7H8L5.5 6.4v-.5A1.5 1.5 0 0 1 7 4.5h.5a1.5 1.5 0 0 1 1 1l2.3 9.5h2.3Z"/></clipPath><g clip-path="url(#b)"><path d="M16.2 19.5a4.8 4.8 0 0 1 2.2.7l4.9-5 .4-.2a1 1 0 0 1 1.1 1.6v.1L18.4 23l-.8-.7V22l-.8-.4a2.6 2.6 0 0 0-2.6.6l-2 2a1 1 0 0 1-1.5-1.4l2-2 .6-.5a4.5 4.5 0 0 1 2.6-.8h.2Z" style="fill:#dfaa50;fill-rule:nonzero"/></g></g></svg>