<svg xmlns="http://www.w3.org/2000/svg" width="1607" height="389" version="1.2"><path fill-rule="evenodd" d="M825.8 246.6c0-92.4 44-145.8 107.2-145.8a80.6 80.6 0 0 1 69.3 37.9V.7h65.3v382.2h-60.4l-3.4-35.7c-17.7 26.8-42.9 41.2-73.7 41.2-61.6 0-104.3-50.7-104.3-141.8zm414.6 141.8c-83.7 0-130.9-46.8-130.9-142.9 0-83.8 37.9-144.7 117.6-144.7 65.4 0 107.7 36.4 107.7 132.5v34.8h-157.7c2.6 46.1 20.8 68.7 68.6 68.7 31.9 0 66-12.2 86.4-25.9v53.3c-19.3 13.1-50 24.2-91.7 24.2zM627.5 184.3v198.6h-65.4V106.3H626l1.5 23.1h3.3c13.3-13.1 36.4-27.5 75.3-27.5 53.4 0 75.4 24.2 75.4 79.1v201.9h-65.4V187.7c0-20.9-10.4-30.8-33.4-30.8a71.8 71.8 0 0 0-55 27.4zm-118.7 10v121l.2 16.9q.2 8.4.7 16.9.4 8.5 1 16.9l1.4 16.8h-63.7a76.5 76.5 0 0 1-4.9-21.9h-2.7c-12.6 13.3-29 25.9-67.5 25.9-50.5 0-84.6-30.8-84.6-84.2 0-57.8 44.5-90.1 144.6-90.1h10.4V195c0-29.7-14.4-40.8-45.6-40.8-37 0-68.9 19.7-89.7 36.8v-56.8a169.9 169.9 0 0 1 97.2-32.3c69.3 0 103.5 25.3 103.5 92.4zm965.5 95-55.6 93.5h-66.5l86.9-144-83.5-132.5h73.9l52.8 83.6 47.1-83.6h65.4l-78 134.1 90.2 142.4h-73.8zm-581.2-42.9c0 62.7 17.7 90.1 53.4 90.1 37 0 55.6-28.1 55.6-92.3 0-63.6-17.5-91.8-52.7-91.8-37.5 0-56.1 28.6-56.3 94zm284-26.8h91.2V214c0-34.5-9.9-61.6-42.3-61.6-31.4 0-47.4 23.1-48.9 67.2zm-733.4 36.1h-9.3c-56.1 0-78.7 11-78.7 42.9 0 24.2 13.8 40.1 41.2 40.1 23.1 0 38.6-9.7 46.8-21.9z" style="fill:#000"/><path d="M191.8 317.9v65h-66.4V273.4L0 .7h69.3L167 214c18.8 40.8 24.8 55 24.8 103.9zM316.7.7l-81.5 184.7h-67.5L249.2.7z" style="fill:#fc3f1d"/></svg>